<?xml version="1.0" encoding="UTF-8" standalone="no"?>
<svg width="18px" height="12px" viewBox="0 0 18 12" version="1.1" xmlns="http://www.w3.org/2000/svg" xmlns:xlink="http://www.w3.org/1999/xlink">
    <!-- Generator: Sketch 48.2 (47327) - http://www.bohemiancoding.com/sketch -->
    <title>英国 (1)</title>
    <desc>Created with Sketch.</desc>
    <defs>
        <polygon id="path-1" points="0.00122727273 0 18 0 18 11.9987755 0.00122727273 11.9987755"></polygon>
    </defs>
    <g id="2" stroke="none" stroke-width="1" fill="none" fill-rule="evenodd" transform="translate(-1251.000000, -116.000000)">
        <g id="Setting-menu" transform="translate(1240.000000, 56.000000)">
            <g id="英国-(1)" transform="translate(11.000000, 60.000000)">
                <polygon id="Fill-1" fill="#0E316F" points="0 12 18 12 18 0 0 0"></polygon>
                <polygon id="Fill-3" fill="#FFFFFF" points="18 4.47140038 13.2134225 4.47140038 18 1.25423925 18 0 16.0300605 0 10.2969345 3.85572265 10.2969345 0 7.76686882 0 7.76686882 3.86719516 2.01255687 0 0 0 0 1.21014562 4.84389197 4.47140038 0 4.47140038 0 7.47627926 4.91594445 7.47627926 0 10.7849755 0 12 2.01255687 12 7.76686882 8.13119216 7.76686882 12 10.2969345 12 10.2969345 8.14101116 16.0300605 12 18 12 18 10.7441481 13.1380949 7.47627926 18 7.47627926"></polygon>
                <g id="Group-7">
                    <mask id="mask-2" fill="white">
                        <use xlink:href="#path-1"></use>
                    </mask>
                    <g id="Clip-5"></g>
                    <polygon id="Fill-4" fill="#E50E17" mask="url(#mask-2)" points="9.79197955 5.03508163 9.79197955 0 8.28161591 0 8.28161591 5.03508163 0.0131113636 5.03508163 0.0131113636 6.93391837 8.28161591 6.93391837 8.28161591 11.9967347 9.79197955 11.9967347 9.79197955 6.93391837 18 6.93391837 18 5.03508163"></polygon>
                    <path d="M18,0 L16.8234545,0 L10.3434545,4.47018367 L11.5101614,4.47018367 L18,0 Z M6.78109091,4.47018367 L0.0131113636,0 L0.0131113636,0.693877551 L5.724,4.47018367 L6.78109091,4.47018367 Z M0,11.9967347 L1.21416136,11.9967347 L7.77432273,7.47265306 L6.55359545,7.47265306 L0,11.9967347 Z M11.4022023,7.48406122 L18,12 L18,11.2212245 L12.4199795,7.48406122 L11.4022023,7.48406122 Z" id="Fill-6" fill="#E50E17" mask="url(#mask-2)"></path>
                </g>
            </g>
        </g>
    </g>
</svg>