<?xml version="1.0" encoding="UTF-8" standalone="no"?>
<svg width="18px" height="12px" viewBox="0 0 18 12" version="1.1" xmlns="http://www.w3.org/2000/svg" xmlns:xlink="http://www.w3.org/1999/xlink">
    <!-- Generator: Sketch 48.2 (47327) - http://www.bohemiancoding.com/sketch -->
    <title>Group 15</title>
    <desc>Created with Sketch.</desc>
    <defs></defs>
    <g id="2" stroke="none" stroke-width="1" fill="none" fill-rule="evenodd" transform="translate(-1251.000000, -82.000000)">
        <g id="Setting-menu" transform="translate(1240.000000, 56.000000)">
            <g id="Group-15" transform="translate(11.000000, 26.000000)">
                <g id="中国">
                    <path d="M1.06825084,11.3243758 L15.8362859,11.3243758 L15.8362859,1.51670303 L1.06825084,1.51670303 L1.06825084,11.3243758 Z M15.8729413,11.4334667 L15.8729413,11.3243758 L15.8729413,11.4334667 Z M1.00717465,11.3854061 L15.8973621,11.3854061 L15.8973621,1.45567273 L1.00717465,1.45567273 L1.00717465,11.3854061 Z" id="Fill-1" fill="#353636"></path>
                    <polygon id="Fill-2" fill="#FF2828" points="0 11.9878788 17.9970627 11.9878788 17.9970627 0.0109333333 0 0.0109333333"></polygon>
                    <path d="M3.58411026,2.4055363 L4.15008589,4.12275421 L5.95673943,4.12275421 L4.498327,5.16620012 L5.04252269,6.88343963 L3.58411026,5.81830791 L2.12578435,6.88343963 L2.69167346,5.16620012 L1.23334755,4.12275421 L3.04002272,4.12275421 L3.58411026,2.4055363 Z M8.28578708,1.49261563 L8.26398551,2.10120061 L8.80815957,2.31862027 L8.22046889,2.47074492 L8.19866732,3.05764409 L7.87222778,2.55772574 L7.30625215,2.68809978 L7.67629484,2.23163945 L7.37154871,1.7317211 L7.91572277,1.97076177 L8.28578708,1.49261563 Z M10.3100886,3.4271884 L10.0488375,3.94887896 L10.4623968,4.36188128 L9.87472774,4.27496525 L9.61347661,4.79665581 L9.526465,4.20975663 L8.93877432,4.12275421 L9.46116844,3.86196293 L9.37404868,3.27506376 L9.78760798,3.68806608 L10.3100886,3.4271884 Z M9.70059637,5.81830791 L9.89650768,6.38343488 L10.4841984,6.38343488 L10.0053425,6.73131498 L10.1794522,7.29644195 L9.70059637,6.94864825 L9.22171887,7.29644195 L9.41765181,6.73131498 L8.93877432,6.38343488 L9.526465,6.38343488 L9.70059637,5.81830791 Z M8.28578708,7.64423565 L8.24218395,8.23111323 L8.80815957,8.44855449 L8.22046889,8.60067914 L8.17688738,9.18757831 L7.87222778,8.68765996 L7.28445058,8.83978461 L7.67629484,8.38332427 L7.34974715,7.88334113 L7.91572277,8.10076079 L8.28578708,7.64423565 Z" id="Fill-3" fill="#FFD811"></path>
                </g>
            </g>
        </g>
    </g>
</svg>